<?xml version="1.0" encoding="utf-8"?>
<!-- Generator: Adobe Illustrator 16.0.4, SVG Export Plug-In . SVG Version: 6.00 Build 0)  -->
<!DOCTYPE svg PUBLIC "-//W3C//DTD SVG 1.1//EN" "http://www.w3.org/Graphics/SVG/1.1/DTD/svg11.dtd">
<svg version="1.1" id="Layer_1" xmlns="http://www.w3.org/2000/svg" xmlns:xlink="http://www.w3.org/1999/xlink" x="0px" y="0px"
	 width="148px" height="35px" viewBox="0 0 148 35" style="enable-background:new 0 0 148 35;" xml:space="preserve">
<g>
	<path style="fill:#FF4C00;" d="M126.633,30.004c0,2.516-2.039,4.557-4.555,4.557c-2.518,0-4.557-2.041-4.557-4.557
		s2.039-4.554,4.557-4.554C124.594,25.45,126.633,27.488,126.633,30.004"/>
	<path style="fill:#FF9B6C;" d="M137.064,30.004c0,2.516-2.037,4.557-4.555,4.557c-2.516,0-4.555-2.041-4.555-4.557
		s2.039-4.554,4.555-4.554C135.027,25.45,137.064,27.488,137.064,30.004"/>
	<path style="fill:#FFBD9C;" d="M147.5,30.004c0,2.516-2.041,4.557-4.557,4.557s-4.555-2.041-4.555-4.557s2.039-4.554,4.555-4.554
		S147.5,27.488,147.5,30.004"/>
	<path style="fill:#FF4C00;" d="M60.098,5.95c0,2.516-2.04,4.555-4.555,4.555c-2.517,0-4.556-2.039-4.556-4.555
		c0-2.516,2.039-4.556,4.556-4.556C58.059,1.394,60.098,3.434,60.098,5.95"/>
	<path style="fill:#FF4C00;" d="M116.582,5.95c0,2.516-2.039,4.555-4.557,4.555c-2.516,0-4.555-2.039-4.555-4.555
		c0-2.516,2.039-4.556,4.555-4.556C114.543,1.394,116.582,3.434,116.582,5.95"/>
	<path style="fill:#58595B;" d="M49.867,23.027c0,6.856-5.564,12.108-12.374,12.108c-6.767,0-12.375-5.252-12.375-12.108
		c0-6.767,5.608-12.063,12.375-12.063C44.303,10.964,49.867,16.261,49.867,23.027 M32.729,23.162c0,2.671,2.182,4.807,4.764,4.807
		c2.625,0,4.762-2.136,4.762-4.807c0-2.717-2.137-4.809-4.762-4.809C34.91,18.354,32.729,20.445,32.729,23.162"/>
	<rect x="51.651" y="11.498" style="fill:#58595B;" width="7.834" height="23.059"/>
	<path style="fill:#58595B;" d="M68.255,27.435c0.044,1.335,0.935,2.359,3.204,2.359c1.604,0,2.315-0.622,2.315-1.424
		c0-1.113-1.69-1.381-3.782-1.781c-3.74-0.668-8.86-1.603-8.86-7.835c0-4.362,3.696-7.657,9.749-7.657
		c6.009,0,9.792,2.849,10.15,7.879h-7.479c-0.043-1.379-0.578-2.271-2.625-2.271c-1.47,0-2.226,0.535-2.226,1.47
		c0,1.156,1.647,1.558,3.739,1.958c3.828,0.757,9.214,1.515,9.214,7.123c0,5.296-4.318,7.879-10.328,7.879
		c-6.588,0-10.461-3.339-10.461-7.701H68.255z"/>
	<rect x="108.143" y="11.498" style="fill:#58595B;" width="7.836" height="23.059"/>
	<path style="fill:#58595B;" d="M14.566,11.053c-2.583,0-4.808,0.891-6.232,2.582V4.064c0-2.163-1.754-3.917-3.917-3.917
		S0.5,1.901,0.5,4.064v30.493h7.834V22.493c0-2.67,1.602-4.229,3.74-4.229c2.315,0,3.517,1.737,3.517,3.962v12.331h7.833v-14.2
		C23.424,14.836,19.952,11.053,14.566,11.053"/>
	<path style="fill:#58595B;" d="M97.236,11.053c-2.582,0-4.809,0.891-6.232,2.582V4.064c0-2.163-1.754-3.917-3.918-3.917
		c-2.162,0-3.916,1.754-3.916,3.917v30.493h7.834V22.493c0-2.67,1.602-4.229,3.74-4.229c2.312,0,3.518,1.737,3.518,3.962v12.331
		h7.832v-14.2C106.094,14.836,102.623,11.053,97.236,11.053"/>
</g>
</svg>
